<svg width="569" height="207" viewBox="0 0 569 207" fill="none" xmlns="http://www.w3.org/2000/svg">
<path d="M58.6608 158.229C54.2171 158.229 50.475 156.941 47.4345 154.365C44.394 151.554 42.8738 147.924 42.8738 143.475V51.7863C42.8738 44.7603 39.3655 41.2474 32.3491 41.2474H15.1587C10.9488 41.2474 7.44056 39.9593 4.63397 37.3831C2.06126 34.5728 0.774902 31.0598 0.774902 26.8442C0.774902 22.6287 2.06126 19.2328 4.63397 16.6567C7.44056 13.8463 10.9488 12.4411 15.1587 12.4411H101.812C106.256 12.4411 109.764 13.8463 112.337 16.6567C115.143 19.2328 116.547 22.6287 116.547 26.8442C116.547 31.0598 115.143 34.5728 112.337 37.3831C109.764 39.9593 106.256 41.2474 101.812 41.2474H84.9726C77.9562 41.2474 74.4479 44.7603 74.4479 51.7863V143.475C74.4479 147.924 72.9277 151.554 69.8872 154.365C67.0806 156.941 63.3385 158.229 58.6608 158.229Z" fill="white"/>
<path d="M170.65 158.229C154.98 158.229 142.234 153.311 132.411 143.475C122.821 133.404 118.027 120.055 118.027 103.427C118.027 86.7988 122.704 73.6837 132.06 64.0816C141.649 54.2453 154.162 49.3272 169.598 49.3272C180.59 49.3272 190.18 53.1915 198.366 60.92C199.301 58.1096 201.055 55.7676 203.628 53.894C206.201 52.0205 209.241 51.0837 212.749 51.0837C217.427 51.0837 221.169 52.4889 223.976 55.2992C227.016 57.8754 228.536 61.0371 228.536 64.7842V144.528C228.536 148.51 227.016 151.788 223.976 154.365C221.169 156.941 217.427 158.229 212.749 158.229C205.031 158.229 200.237 154.833 198.366 148.041C190.881 154.833 181.643 158.229 170.65 158.229ZM173.106 129.774C180.59 129.774 186.554 127.315 190.998 122.397C195.442 117.244 197.664 110.921 197.664 103.427C197.664 95.6983 195.442 89.492 190.998 84.8081C186.554 80.1241 180.59 77.7822 173.106 77.7822C165.856 77.7822 159.892 80.1241 155.214 84.8081C150.77 89.492 148.548 95.6983 148.548 103.427C148.548 110.921 150.77 117.244 155.214 122.397C159.892 127.315 165.856 129.774 173.106 129.774Z" fill="white"/>
<path d="M291.375 158.229C275.471 158.229 262.374 154.95 252.083 148.393C249.978 146.987 248.457 145.348 247.522 143.475C246.586 141.367 246.119 139.376 246.119 137.502C246.119 133.521 247.405 129.891 249.978 126.612C252.784 123.334 256.176 121.694 260.152 121.694C262.023 121.694 263.894 122.163 265.765 123.099C269.975 124.973 274.769 126.612 280.149 128.017C285.528 129.188 290.439 129.774 294.883 129.774C303.537 129.774 307.864 127.783 307.864 123.802C307.864 121.46 306.811 119.469 304.706 117.83C302.601 115.956 297.69 114.668 289.972 113.966C286.931 113.731 282.955 113.263 278.044 112.56C273.366 111.858 268.688 110.57 264.011 108.696C259.333 106.588 255.357 103.544 252.083 99.5625C249.042 95.5812 247.522 90.1946 247.522 83.4029C247.522 72.864 251.498 64.55 259.45 58.4609C267.402 52.3718 278.044 49.3272 291.375 49.3272C299.093 49.3272 306.343 50.1469 313.126 51.7863C320.142 53.4256 325.405 55.8847 328.913 59.1635C332.187 62.208 333.825 65.721 333.825 69.7024C333.825 73.2153 332.538 76.377 329.966 79.1874C327.393 81.9977 324.118 83.4029 320.142 83.4029C318.038 83.4029 316.05 82.9345 314.178 81.9977C311.372 80.1241 307.747 78.719 303.303 77.7822C299.093 76.8454 294.766 76.377 290.322 76.377C281.435 76.377 276.991 78.2506 276.991 81.9977C276.991 83.6371 277.81 85.1594 279.447 86.5646C281.318 87.7355 285.411 88.7894 291.726 89.7262C295.702 90.1946 300.262 90.8972 305.408 91.834C310.553 92.5366 315.465 93.9418 320.142 96.0496C325.054 97.9231 329.147 101.085 332.421 105.535C335.696 109.984 337.333 116.073 337.333 123.802C337.333 134.341 333.123 142.772 324.703 149.095C316.283 155.184 305.174 158.229 291.375 158.229Z" fill="white"/>
<path d="M372.429 158.229C367.985 158.229 364.243 156.941 361.203 154.365C358.162 151.788 356.642 148.51 356.642 144.528V13.8463C356.642 10.0991 358.045 6.93747 360.852 4.3613C363.892 1.55094 367.751 0.145752 372.429 0.145752C376.873 0.145752 380.498 1.55094 383.305 4.3613C386.111 6.93747 387.514 10.2162 387.514 14.1976V74.6205C387.514 77.4309 388.333 78.8361 389.97 78.8361C390.438 78.8361 391.373 78.3677 392.777 77.4309L426.807 52.1376C429.613 50.264 432.654 49.3272 435.928 49.3272C439.904 49.3272 443.178 50.7324 445.751 53.5427C448.324 56.3531 449.61 59.6319 449.61 63.379C449.61 68.5314 447.271 72.6298 442.594 75.6744L414.879 93.9418C412.54 95.5812 411.37 97.3376 411.37 99.2112C411.37 101.085 412.306 102.607 414.177 103.778L446.102 132.584C448.207 134.224 449.61 136.097 450.312 138.205C451.014 140.313 451.364 142.304 451.364 144.177C451.364 147.924 449.844 151.203 446.804 154.013C443.997 156.824 440.606 158.229 436.63 158.229C432.654 158.229 429.146 156.707 426.105 153.662L391.724 119.938C391.023 119.235 390.204 118.884 389.269 118.884C388.099 118.884 387.514 119.821 387.514 121.694V144.177C387.514 148.158 385.994 151.554 382.954 154.365C380.147 156.941 376.639 158.229 372.429 158.229Z" fill="white"/>
<path d="M458.49 63.379C458.49 58.695 460.128 55.1821 463.402 52.8401C466.676 50.4981 470.418 49.3271 474.628 49.3271C477.903 49.3271 480.709 50.2639 483.048 52.1375C485.621 53.7769 487.375 56.1189 488.311 59.1634L510.062 112.209C511.231 115.254 512.868 116.776 514.973 116.776C517.078 116.776 518.598 115.254 519.534 112.209L538.478 59.1634C539.648 55.8847 541.519 53.4256 544.092 51.7862C546.898 50.1468 549.822 49.3271 552.862 49.3271C556.838 49.3271 560.463 50.6152 563.738 53.1914C567.246 55.7676 569 59.1634 569 63.379C569 65.721 568.532 67.9458 567.597 70.0536L512.868 196.52C511.231 200.033 509.126 202.492 506.553 203.897C504.215 205.537 501.759 206.356 499.186 206.356C494.976 206.356 491.117 204.834 487.609 201.79C484.335 198.979 482.697 195.583 482.697 191.602C482.697 189.494 483.165 187.621 484.101 185.981L503.045 152.257C499.069 151.086 495.912 148.158 493.573 143.474L459.543 69.7023C458.841 67.5945 458.49 65.4868 458.49 63.379Z" fill="#F5F876"/>
</svg>
